<svg xmlns="http://www.w3.org/2000/svg" viewBox="0 0 109.44 162.78"><g id="Layer_2" data-name="Layer 2"><g id="Layer_1-2" data-name="Layer 1"><path d="M57.1,2.5C27,2.5,2.5,22.93,2.5,48.14A39.22,39.22,0,0,0,7.38,67v93.29H53.31V93.66c1.25.07,2.52.12,3.79.12,22.21,0,41.31-11.09,49.84-27V29.5C98.41,13.59,79.31,2.5,57.1,2.5Z" style="stroke:#000;stroke-linecap:round;stroke-linejoin:round;stroke-width:5px;fill-rule:evenodd"/><path d="M57.77,101.15c0-10.88,6.55-19.69,14.63-19.69" style="fill:none;stroke:#fff;stroke-linecap:round;stroke-linejoin:round;stroke-width:5px"/><path d="M17.45,30.4c.84-2.21,4.78-8.08,11.88-12.75a35.54,35.54,0,0,1,17.53-5.52" style="fill:none;stroke:#fff;stroke-linecap:round;stroke-linejoin:round;stroke-width:5px"/><line x1="56.72" y1="24.78" x2="56.72" y2="71.54" style="fill:none;stroke:#fff;stroke-linecap:round;stroke-linejoin:round;stroke-width:5px"/><line x1="95.37" y1="33.3" x2="95.37" y2="36.66" style="fill:none;stroke:#fff;stroke-linecap:round;stroke-linejoin:round;stroke-width:5px"/></g></g></svg>